# Blender 4.1.1
# www.blender.org
mtllib CornerBuilding.mtl
o Cube
v 0.000000 0.000000 1.000000
v -1.000000 0.000000 0.000000
v -1.000000 0.000000 1.000000
v 0.000000 0.000000 0.900000
v -1.000000 0.000000 0.900000
v -0.900000 0.000000 1.000000
v -0.900000 0.000000 0.000000
v -0.900000 3.400000 0.900000
v -0.900000 0.000000 0.900000
v 0.000000 3.000000 1.000000
v -1.000000 3.000000 1.000000
v -1.000000 3.000000 0.000000
v -1.000000 3.000000 0.900000
v 0.000000 3.000000 0.900000
v -0.900000 3.000000 0.000000
v -0.900000 3.000000 1.000000
v -1.000000 5.000000 0.500000
v -1.000000 0.000000 0.500000
v -0.900000 5.000000 0.500000
v -0.900000 0.000000 0.500000
v -1.000000 3.000000 0.500000
v -0.500000 0.000000 1.000000
v -0.500000 0.000000 0.900000
v -0.500000 5.000000 1.000000
v -0.500000 5.000000 0.900000
v -0.500000 3.000000 1.000000
v -1.000667 5.119996 0.500667
v -0.500667 5.119996 0.900667
v -1.000000 3.520000 0.900000
v -0.900667 3.520000 1.000667
v -0.000667 3.119997 1.000667
v -0.500667 5.119996 1.000667
v -1.000667 3.119997 0.000667
v -0.900667 3.119997 0.000667
v -1.000000 3.120000 1.000000
v -0.000667 3.119997 0.900667
v -0.900667 5.119996 0.500667
v -0.900667 3.519996 0.900667
v -0.865313 3.120390 -0.034687
v 0.034687 3.120390 0.865313
v -1.000667 3.120275 -0.049332
v -0.900667 3.120275 -0.049332
v 0.049332 3.120275 1.000667
v 0.049332 3.120275 0.900667
v 0.035021 3.060391 0.864979
v -0.864979 3.060391 -0.035021
v 0.049666 3.060277 0.900334
v 0.049666 3.060277 1.000334
v -0.900334 3.060277 -0.049666
v -1.000334 3.060277 -0.049666
v 0.000000 1.500000 1.000000
v -1.000000 1.500000 1.000000
v -1.000000 1.500000 0.000000
v -1.000000 1.500000 0.900000
v 0.000000 1.500000 0.900000
v -0.900000 1.500000 0.000000
v -0.900000 1.500000 1.000000
v -1.000000 1.500000 0.500000
v -0.500000 1.500000 1.000000
v 0.000000 1.620000 1.000000
v -1.000000 1.620000 1.000000
v -1.000000 1.620000 0.000000
v -1.000000 1.620000 0.900000
v 0.000000 1.620000 0.900000
v -0.900000 1.620000 0.000000
v -0.900000 1.620000 1.000000
v -1.000000 1.620000 0.500000
v -0.500000 1.620000 1.000000
v -1.000000 1.500000 -0.025000
v -0.900000 1.500000 -0.025000
v -1.000000 1.620000 -0.025000
v -0.900000 1.620000 -0.025000
v 0.025000 1.500000 1.000000
v 0.025000 1.500000 0.900000
v 0.025000 1.620000 1.000000
v 0.025000 1.620000 0.900000
v 0.017678 1.500000 0.882322
v -0.882322 1.500000 -0.017678
v 0.017678 1.620000 0.882322
v -0.882322 1.620000 -0.017678
vn -0.0000 -0.0000 1.0000
vn -1.0000 -0.0000 -0.0000
vn -0.0000 -1.0000 -0.0000
vn 0.7071 -0.0000 -0.7071
vn 0.9997 0.0057 -0.0227
vn -0.9701 0.2425 -0.0000
vn -0.0000 -0.0000 -1.0000
vn 1.0000 -0.0000 -0.0000
vn 0.0093 -0.0021 1.0000
vn 0.0227 0.0057 -0.9997
vn -0.0000 0.2425 -0.9701
vn 0.9701 0.2425 -0.0000
vn 0.9239 0.0073 -0.3827
vn -0.0227 -0.0057 0.9997
vn 0.3827 0.0073 -0.9239
vn -0.9997 -0.0057 0.0227
vn -0.0032 0.2423 0.9702
vn -0.0217 0.0054 -0.9997
vn 0.9997 0.0054 0.0217
vn -0.9705 0.2410 -0.0000
vn -0.0065 0.2425 0.9701
vn -0.0013 -0.0010 1.0000
vn -1.0000 -0.0010 -0.0038
vn 0.7354 -0.6043 -0.3066
vn 0.3066 -0.6043 -0.7354
vn -0.0056 1.0000 0.0056
vn 0.5468 -0.6341 -0.5468
vn -0.0000 0.0056 -1.0000
vn -0.0000 1.0000 0.0056
vn -0.0000 -0.6359 -0.7718
vn 1.0000 0.0056 -0.0000
vn -0.0056 1.0000 -0.0000
vn -0.0000 -0.0056 1.0000
vn 0.7718 -0.6359 -0.0000
vn 0.7071 0.0079 -0.7071
vn -1.0000 -0.0056 -0.0000
vn -0.0000 1.0000 -0.0000
vn 0.3827 -0.0000 -0.9239
vn 0.9239 -0.0000 -0.3827
vt 0.625000 0.358305
vt 0.547642 0.358305
vt 0.547642 0.250000
vt 0.547642 0.750000
vt 0.547642 0.636558
vt 0.625000 0.636558
vt 0.341610 0.636558
vt 0.375000 0.636558
vt 0.375000 0.750000
vt 0.341610 0.750000
vt 0.000000 0.000000
vt 0.341610 0.500000
vt 0.375000 0.500000
vt 0.375000 0.523116
vt 0.341610 0.523116
vt 0.547642 0.466610
vt 0.233305 0.500000
vt 0.233305 0.523116
vt 0.658390 0.636558
vt 0.547642 0.783390
vt 0.766695 0.500000
vt 0.766695 0.523116
vt 0.465707 0.358305
vt 0.465707 0.466610
vt 0.465707 0.750000
vt 0.465707 0.783390
vt 0.465707 0.500000
vt 0.547642 0.500000
vt 0.547642 0.523116
vt 0.465707 0.523116
vt 0.465707 0.636558
vt 0.465707 0.226884
vt 0.547642 0.226884
vt 0.465707 0.250000
vt 0.125000 0.500000
vt 0.125000 0.523116
vt 0.658390 0.523116
vt 0.375000 0.250000
vt 0.461321 0.250000
vt 0.461321 0.358305
vt 0.375000 0.358305
vt 0.461321 0.523116
vt 0.461321 0.636558
vt 0.375000 0.226884
vt 0.461321 0.226884
vt 0.375000 0.466610
vt 0.461321 0.466610
vt 0.461321 0.500000
vt 0.461321 0.750000
vt 0.461321 0.783390
vt 0.375000 0.783390
s 0
usemtl Material.003
f 24/1/1 26/2/1 10/3/1
f 12/4/2 21/5/2 17/6/2
f 20/7/3 18/8/3 2/9/3 7/10/3
f 56/11/4 55/11/4 4/11/4 7/11/4
f 6/12/3 3/13/3 5/14/3 9/15/3
f 26/2/1 24/1/1 16/16/1
f 22/17/3 6/12/3 9/15/3 23/18/3
f 4/11/3 23/18/3 20/7/3 7/11/3
f 19/19/5 15/20/5 34/20/5 37/19/5
f 32/21/6 28/22/6 38/11/6 30/16/6
f 68/23/1 26/2/1 16/16/1 66/24/1
f 62/25/7 12/4/7 15/20/7 65/26/7
f 61/27/2 11/28/2 13/29/2 63/30/2
f 67/31/2 21/5/2 12/4/2 62/25/2
f 66/24/1 16/16/1 11/28/1 61/27/1
f 64/32/8 14/33/8 10/3/8 60/34/8
f 63/30/2 13/29/2 21/5/2 67/31/2
f 20/7/3 23/18/3 9/15/3
f 9/15/3 5/14/3 18/8/3 20/7/3
f 17/6/2 21/5/2 13/29/2
f 60/34/1 10/3/1 26/2/1 68/23/1
f 16/16/9 24/1/9 32/1/9 30/16/9
f 1/35/3 22/17/3 23/18/3 4/36/3
f 14/33/10 25/22/10 28/22/10 36/33/10
f 33/4/11 27/6/11 37/19/11 34/20/11
f 32/21/12 31/3/12 36/33/12 28/22/12
f 47/33/13 45/11/13 40/11/13 44/33/13
f 24/1/14 10/3/14 31/3/14 32/1/14
f 46/11/15 49/11/15 42/11/15 39/11/15
f 12/4/16 17/6/16 27/6/16 33/4/16
f 38/11/17 37/19/17 27/6/17 29/11/17
f 25/22/18 8/37/18 38/11/18 28/22/18
f 8/37/19 19/19/19 37/19/19 38/11/19
f 38/11/20 35/11/20 30/16/20
f 29/11/21 35/11/21 38/11/21
f 11/28/2 35/11/2 29/11/2 13/29/2
f 30/16/22 35/11/22 11/28/22 16/16/22
f 17/6/23 13/29/23 29/11/23 27/6/23
f 45/11/24 47/33/24 14/33/24
f 46/11/25 15/20/25 49/11/25
f 34/11/26 36/11/26 40/11/26 39/11/26
f 36/33/26 44/33/26 40/11/26
f 15/11/27 46/11/27 45/11/27 14/33/27
f 49/20/28 50/4/28 41/4/28 42/20/28
f 39/11/26 42/20/26 34/11/26
f 33/4/29 34/20/29 42/20/29 41/4/29
f 15/20/30 12/4/30 50/4/30 49/20/30
f 48/3/31 47/33/31 44/33/31 43/3/31
f 36/33/32 31/3/32 43/3/32 44/33/32
f 10/3/33 48/3/33 43/3/33 31/3/33
f 10/3/34 14/33/34 47/33/34 48/3/34
f 39/11/35 40/11/35 45/11/35 46/11/35
f 33/4/36 41/4/36 50/4/36 12/4/36
f 1/38/1 51/39/1 59/40/1 22/41/1
f 5/14/2 54/42/2 58/43/2 18/8/2
f 4/44/8 55/45/8 51/39/8 1/38/8
f 6/46/1 57/47/1 52/48/1 3/13/1
f 18/8/2 58/43/2 53/49/2 2/9/2
f 3/13/2 52/48/2 54/42/2 5/14/2
f 2/9/7 53/49/7 56/50/7 7/51/7
f 22/41/1 59/40/1 57/47/1 6/46/1
f 80/11/37 72/26/37 65/11/37
f 15/11/4 14/11/4 64/11/4 65/11/4
f 51/39/1 60/34/1 68/23/1 59/40/1
f 54/42/2 63/30/2 67/31/2 58/43/2
f 64/32/37 60/34/37 75/34/37 76/32/37
f 57/47/1 66/24/1 61/27/1 52/48/1
f 58/43/2 67/31/2 62/25/2 53/49/2
f 52/48/2 61/27/2 63/30/2 54/42/2
f 78/11/38 70/50/38 72/26/38 80/11/38
f 59/40/1 68/23/1 66/24/1 57/47/1
f 69/49/7 71/25/7 72/26/7 70/50/7
f 62/25/37 65/26/37 72/26/37 71/25/37
f 56/50/3 53/49/3 69/49/3 70/50/3
f 53/49/2 62/25/2 71/25/2 69/49/2
f 74/45/8 76/32/8 75/34/8 73/39/8
f 55/11/3 77/11/3 74/45/3
f 60/34/1 51/39/1 73/39/1 75/34/1
f 51/39/3 55/45/3 74/45/3 73/39/3
f 80/11/4 79/11/4 77/11/4 78/11/4
f 65/11/37 64/11/37 79/11/37 80/11/37
f 55/11/3 56/11/3 78/11/3 77/11/3
f 70/50/3 78/11/3 56/50/3
f 64/11/37 76/32/37 79/11/37
f 74/45/39 77/11/39 79/11/39 76/32/39
o Cube.001
v -0.900000 3.400000 0.900000
v 0.000000 3.000000 0.900000
v -0.900000 3.000000 0.000000
v -0.900000 5.000000 0.500000
v -0.500000 5.000000 0.900000
vn -0.6963 0.1741 0.6963
vn 0.6963 0.1741 -0.6963
vt 0.658390 0.523116
vt 0.766695 0.523116
vt 0.658390 0.636558
vt 0.547642 0.226884
vt 0.547642 0.783390
s 0
usemtl Material
f 81/52/40 85/53/40 84/54/40
f 82/55/41 83/56/41 84/54/41 85/53/41
